<?xml version="1.0" ?>
<!-- Uploaded to: SVG Repo, www.svgrepo.com, Generator: SVG Repo Mixer Tools -->
<svg width="800px" height="800px" viewBox="0 0 32 32" xmlns="http://www.w3.org/2000/svg">
<defs>
<style>.cls-1{fill:#ffab00;}.cls-2{fill:#795548;}.cls-3{fill:#ffc400;}.cls-4{fill:#ffd740;}.cls-5{fill:#5b4036;}</style>
</defs>
<title/>
<g data-name="Layer 3" id="Layer_3">
<path class="cls-1" d="M7,18.5v-2A7.47,7.47,0,0,1,14,9V9H11.5a8.5,8.5,0,1,0,0,17h3A7.49,7.49,0,0,1,7,18.5Z"/>
<path class="cls-1" d="M27.53,12.73A8.47,8.47,0,0,0,20.5,9H18V9a7.48,7.48,0,0,1,7,7.47v2A7.51,7.51,0,0,1,17.5,26h3a8.49,8.49,0,0,0,7-13.27Z"/>
<path class="cls-2" d="M14.5,9H14V9C14.17,9,14.33,9,14.5,9Z"/>
<path class="cls-2" d="M18,9V9h-.5C17.67,9,17.83,9,18,9Z"/>
<path class="cls-3" d="M12.85,24.46A3.93,3.93,0,0,1,12,22V13a4.19,4.19,0,0,1,.17-1.17A4,4,0,0,1,16,9H14.5c-.17,0-.33,0-.5,0A7.47,7.47,0,0,0,7,16.5v2A7.49,7.49,0,0,0,14.5,26H16A4,4,0,0,1,12.85,24.46Z"/>
<path class="cls-3" d="M23.72,12.31A7.5,7.5,0,0,0,18,9c-.17,0-.33,0-.5,0H16a4,4,0,0,1,4,4v9a4,4,0,0,1-4,4h1.5A7.51,7.51,0,0,0,25,18.5v-2A7.44,7.44,0,0,0,23.72,12.31Z"/>
<path class="cls-4" d="M19.6,11.25a4,4,0,0,0-7.43.58A4.19,4.19,0,0,0,12,13v9a4,4,0,0,0,4,4,4,4,0,0,0,4-4V13A3.94,3.94,0,0,0,19.6,11.25Z"/>
<path class="cls-5" d="M14.5,6a.5.5,0,0,0-.5.5V9h2V6Z"/>
<path class="cls-2" d="M17.5,6H16V9h2V6.5A.5.5,0,0,0,17.5,6Z"/>
</g>
</svg>